<svg xmlns="http://www.w3.org/2000/svg" width="1080" height="500" viewBox="0 0 1080 500" role="img" aria-labelledby="title desc">
<title id="title">QuakeCast Metal validation benchmark progress</title>
<desc id="desc">Information gain per observed earthquake event by research attempt. Higher values are better.</desc>
<style>
  :root { color-scheme: light dark; }
  svg { background: #fbfaf7; font-family: ui-sans-serif, -apple-system, BlinkMacSystemFont, "Segoe UI", sans-serif; }
  .title { fill: #172033; font-size: 24px; font-weight: 700; }
  .subtitle, .tick, .axis-label, .attempt, .empty { fill: #596375; }
  .subtitle { font-size: 14px; } .tick { font-size: 12px; } .axis-label { font-size: 13px; font-weight: 600; }
  .grid { stroke: #d9dde5; stroke-width: 1; } .axis { stroke: #7c8799; stroke-width: 1.5; }
  .series { fill: none; stroke: #1769e0; stroke-width: 4; stroke-linejoin: round; stroke-linecap: round; }
  .point { fill: #fbfaf7; stroke: #1769e0; stroke-width: 4; }
  .value { fill: #0f55bd; font-size: 15px; font-weight: 700; } .attempt { font-size: 12px; }
  @media (prefers-color-scheme: dark) {
    svg { background: #10141c; } .title { fill: #eef3fb; } .subtitle, .tick, .axis-label, .attempt, .empty { fill: #aeb8c7; }
    .grid { stroke: #2c3441; } .axis { stroke: #697588; } .series { stroke: #68a0ff; }
    .point { fill: #10141c; stroke: #68a0ff; } .value { fill: #8bb8ff; }
  }
</style>
<text class="title" x="84" y="34">QuakeCast Metal benchmark</text>
<text class="subtitle" x="84" y="56">Fixed 2022-2023 validation set - Poisson information gain/event - higher is better</text>
<line class="grid" x1="84" y1="395.0" x2="1038" y2="395.0"/><text class="tick" x="70" y="400.0" text-anchor="end">-0.8</text><line class="grid" x1="84" y1="329.6" x2="1038" y2="329.6"/><text class="tick" x="70" y="334.6" text-anchor="end">0.4</text><line class="grid" x1="84" y1="264.2" x2="1038" y2="264.2"/><text class="tick" x="70" y="269.2" text-anchor="end">1.6</text><line class="grid" x1="84" y1="198.8" x2="1038" y2="198.8"/><text class="tick" x="70" y="203.8" text-anchor="end">2.8</text><line class="grid" x1="84" y1="133.4" x2="1038" y2="133.4"/><text class="tick" x="70" y="138.4" text-anchor="end">3.9</text><line class="grid" x1="84" y1="68.0" x2="1038" y2="68.0"/><text class="tick" x="70" y="73.0" text-anchor="end">5.1</text>
<line class="axis" x1="84" y1="68" x2="84" y2="395"/>
<line class="axis" x1="84" y1="395" x2="1038" y2="395"/>
<text class="axis-label" transform="translate(22 231.5) rotate(-90)" text-anchor="middle">Information gain per observed event (nats)</text>
<text class="axis-label" x="561.0" y="480" text-anchor="middle">Research attempt</text>
<polyline class="series" points="189.0,183.1 246.2,130.9 303.5,148.2 360.7,113.7 417.9,119.7 475.2,133.6 532.4,115.8 589.6,119.8 646.8,111.3 704.1,115.0 761.3,119.2 818.5,121.1 875.8,120.5 933.0,118.7"/><circle class="point" cx="189.0" cy="183.1" r="7"><title>001-log-mse-sequence-balanced: 3.051</title></circle><text class="value" x="189.0" y="168.1" text-anchor="middle">3.05</text><text class="attempt" x="189.0" y="425" text-anchor="middle">001 · log-MSE</text><circle class="point" cx="246.2" cy="130.9" r="7"><title>002-poisson-sequence-balanced: 3.994</title></circle><text class="value" x="246.2" y="115.9" text-anchor="middle">3.99</text><text class="attempt" x="246.2" y="425" text-anchor="middle">002 · Poisson</text><circle class="point" cx="303.5" cy="148.2" r="7"><title>003-poisson-low-lr-eight-epochs: 3.683</title></circle><text class="value" x="303.5" y="133.2" text-anchor="middle">3.68</text><text class="attempt" x="303.5" y="425" text-anchor="middle">003 · Poisson</text><circle class="point" cx="360.7" cy="113.7" r="7"><title>004-poisson-best-epoch-selection: 4.306</title></circle><text class="value" x="360.7" y="98.7" text-anchor="middle">4.31</text><text class="attempt" x="360.7" y="425" text-anchor="middle">004 · Poisson</text><circle class="point" cx="417.9" cy="119.7" r="7"><title>005-poisson-mean-rate-bias-init: 4.197</title></circle><text class="value" x="417.9" y="104.7" text-anchor="middle">4.20</text><text class="attempt" x="417.9" y="425" text-anchor="middle">005 · Poisson</text><circle class="point" cx="475.2" cy="133.6" r="7"><title>006-poisson-persistence-offset: 3.945</title></circle><text class="value" x="475.2" y="118.6" text-anchor="middle">3.95</text><text class="attempt" x="475.2" y="425" text-anchor="middle">006 · Poisson</text><circle class="point" cx="532.4" cy="115.8" r="7"><title>007-poisson-ema-weights: 4.267</title></circle><text class="value" x="532.4" y="100.8" text-anchor="middle">4.27</text><text class="attempt" x="532.4" y="425" text-anchor="middle">007 · Poisson</text><circle class="point" cx="589.6" cy="119.8" r="7"><title>008-poisson-cosine-warmup: 4.196</title></circle><text class="value" x="589.6" y="104.8" text-anchor="middle">4.20</text><text class="attempt" x="589.6" y="425" text-anchor="middle">008 · Poisson</text><circle class="point" cx="646.8" cy="111.3" r="7"><title>009-poisson-four-seed-ensemble: 4.350</title></circle><text class="value" x="646.8" y="96.3" text-anchor="middle">4.35</text><text class="attempt" x="646.8" y="425" text-anchor="middle">009 · Poisson</text><circle class="point" cx="704.1" cy="115.0" r="7"><title>010-poisson-capped-sequence-sampling: 4.282</title></circle><text class="value" x="704.1" y="100.0" text-anchor="middle">4.28</text><text class="attempt" x="704.1" y="425" text-anchor="middle">010 · Poisson</text><circle class="point" cx="761.3" cy="119.2" r="7"><title>011-poisson-clip-and-weight-decay: 4.206</title></circle><text class="value" x="761.3" y="104.2" text-anchor="middle">4.21</text><text class="attempt" x="761.3" y="425" text-anchor="middle">011 · Poisson</text><circle class="point" cx="818.5" cy="121.1" r="7"><title>012-poisson-width-96: 4.172</title></circle><text class="value" x="818.5" y="106.1" text-anchor="middle">4.17</text><text class="attempt" x="818.5" y="425" text-anchor="middle">012 · Poisson</text><circle class="point" cx="875.8" cy="120.5" r="7"><title>013-poisson-ema-cosine-ensemble: 4.182</title></circle><text class="value" x="875.8" y="105.5" text-anchor="middle">4.18</text><text class="attempt" x="875.8" y="425" text-anchor="middle">013 · Poisson</text><circle class="point" cx="933.0" cy="118.7" r="7"><title>014-poisson-capped-plus-cosine: 4.216</title></circle><text class="value" x="933.0" y="103.7" text-anchor="middle">4.22</text><text class="attempt" x="933.0" y="425" text-anchor="middle">014 · Poisson</text>
</svg>
